<?xml version="1.0" encoding="utf-8"?>
<!-- Generator: Adobe Illustrator 18.1.1, SVG Export Plug-In . SVG Version: 6.00 Build 0)  -->
<svg version="1.1" id="Layer_1" xmlns="http://www.w3.org/2000/svg" xmlns:xlink="http://www.w3.org/1999/xlink" x="0px" y="0px"
	 viewBox="0 0 595.3 841.9" enable-background="new 0 0 595.3 841.9" xml:space="preserve">
<path d="M445.5,570v37.1h37.1v37.1h37.3v-74.4h-37.1v-37.1h-37.1V495H557v-37.1h-74.2v-74.4h37.1v37.1h74.2v-37.1H557v-37.1h-37.1
	h-37.1v-37.1h37.1v-37.3H557v-37.1h-37.1h-37.1v37.1h-37.1v-74.2h37.1v-74.4h-37.1v37.1h-37.1v74.4h-74.2v-37.1h37.1v-74.4h-37.1
	v37.1h-37.1v74.4h-37.3v-74.4h-37.1v-37.1h-37.1v38.5v35.9h-37.1v-37.3H74.2v37.1h37.1v37.1H37.1v37.1h37.1v37.1H0v37.1h37.1V383
	h37.1v37.1H0v37.1h74.2V495H37.1v37.1H0v74.4h37.1v-37.1h37.1v-37.1h37.1v37.1h37.1v37.1h-37.1v37.1H74.2v37.1h74.2v-37.1h37.1
	v-37.1h37.1v74.4h37.3v37.7h74.2v-37.1h37.1v37.1h74.2v-37.1h-37.1v-37.1h-37.1v-37.1h37.1v-37.1h37.1V570z M259.9,457.9h-37.1V495
	h-74.2v-37.1h-37.1v-74.4h37.1v-37.1h74.2v37.1h-37.1v37.1h37.1v-37.1h37.1V457.9z M222.8,197.7v37.1h-37.1v-37.1H222.8z
	 M148.4,234.8v37.1h-36.9v-37.1H148.4z M111.3,309.2v37.1H74.2v-37.1H111.3z M297,681.5v-37.1h-37.1v-37.1h74.2v74.4H297V681.5z
	 M445.5,457.9h-37.1V495h-74.2v-37.1H297v-74.4h37.1v37.1h37.1v-37.1h-37.1v-37.1h74.2v37.1h37.1L445.5,457.9L445.5,457.9z"/>
</svg>
