<?xml version="1.0" encoding="utf-8"?>
<!-- Generator: Adobe Illustrator 18.1.1, SVG Export Plug-In . SVG Version: 6.00 Build 0)  -->
<svg version="1.1" id="Layer_1" xmlns="http://www.w3.org/2000/svg" xmlns:xlink="http://www.w3.org/1999/xlink" x="0px" y="0px"
	 viewBox="0 0 300 300" enable-background="new 0 0 300 300" xml:space="preserve">
<path d="M224.6,206.3 M224.5,225.1v18.7h18.7v18.7H262v-37.5h-18.7v-18.7h-18.7v-19h56.1v-18.7h-37.4v-37.5H262v18.7h37.4v-18.7
	h-18.7v-18.7H262h-18.7V93.7H262V74.9h18.7V56.2H262h-18.7v18.7h-18.7V37.5h18.7V0h-18.7v18.7h-18.7v37.5h-37.4V37.5h18.7V0h-18.7
	v18.7h-18.7v37.5H131V18.7h-18.7V0H93.6v19.4v18.1H74.9V18.7H37.4v18.7h18.7v18.7H37.4h0H18.7v18.7h18.7v18.7H0v18.7h18.7v18.7h18.7
	v18.7H0v18.7h37.4v19H18.7v18.7H0v37.5h18.7v-18.7h18.7v-18.7h18.7v18.7h18.7v18.7H56.1v18.7H37.4v18.7h37.4v-18.7h18.7v-18.7h18.7
	v37.5H131V300h37.4v-18.7h18.7V300h37.4v-18.7h-18.7v-18.7h-18.7v-18.7h18.7v-18.7H224.5z M131,168.6h-18.7v18.7H74.9v-18.7H56.2
	v-37.5h18.7v-18.7h37.4v18.7H93.6v18.7h18.7v-18.7H131V168.6z M112.3,37.5v18.7H93.6V37.5H112.3z M74.8,56.2v18.7H56.2V56.2H74.8z
	 M56.1,93.7v18.7H37.4V93.7H56.1z M149.7,281.3v-18.7H131v-18.7h37.4v37.5H149.7z M224.5,168.6h-18.7v18.7h-37.4v-18.7h-18.7v-37.5
	h18.7v18.7h18.7v-18.7h-18.7v-18.7h37.4v18.7h18.7V168.6z"/>
</svg>
